<svg width="640" height="419" viewBox="0 0 640 419" fill="none" xmlns="http://www.w3.org/2000/svg">
<path d="M369.405 336.622C367.911 336.622 366.45 337.103 365.208 338.005C363.966 338.906 362.998 340.187 362.426 341.685C361.854 343.184 361.705 344.833 361.996 346.424C362.288 348.015 363.007 349.476 364.063 350.623C365.12 351.77 366.466 352.551 367.931 352.867C369.397 353.184 370.916 353.021 372.296 352.401C373.676 351.78 374.856 350.729 375.686 349.38C376.516 348.031 376.959 346.446 376.959 344.824C376.959 342.649 376.163 340.563 374.747 339.025C373.33 337.487 371.408 336.622 369.405 336.622ZM369.405 349.871C368.486 349.871 367.587 349.575 366.822 349.02C366.058 348.466 365.462 347.677 365.11 346.755C364.758 345.833 364.666 344.818 364.846 343.839C365.025 342.86 365.468 341.961 366.118 341.255C366.768 340.549 367.596 340.068 368.498 339.874C369.4 339.679 370.335 339.779 371.184 340.161C372.034 340.543 372.76 341.19 373.27 342.02C373.781 342.85 374.054 343.825 374.054 344.824V344.824C374.054 346.162 373.564 347.446 372.692 348.392C371.82 349.339 370.638 349.871 369.405 349.871V349.871Z" fill="#E4E4E4"/>
<path d="M340.35 330.313H369.405V361.533C369.405 362.623 369.006 363.668 368.296 364.439C367.587 365.209 366.624 365.642 365.62 365.642H344.135C343.132 365.642 342.169 365.209 341.459 364.439C340.749 363.668 340.35 362.623 340.35 361.533V330.313V330.313Z" fill="#E4E4E4"/>
<path d="M437.29 366.357H0.589322C0.42737 366.337 0.277679 366.254 0.168937 366.122C0.060196 365.99 6.10352e-05 365.82 6.10352e-05 365.643C6.10352e-05 365.466 0.060196 365.295 0.168937 365.164C0.277679 365.032 0.42737 364.948 0.589322 364.929H437.29C437.452 364.948 437.602 365.032 437.711 365.164C437.82 365.295 437.88 365.466 437.88 365.643C437.88 365.82 437.82 365.99 437.711 366.122C437.602 366.254 437.452 366.337 437.29 366.357V366.357Z" fill="#CACACA"/>
<path d="M58.7824 352.874L56.0816 367.372L106.306 385.583L110.293 364.185L58.7824 352.874Z" fill="#FFB6B6"/>
<path d="M63.8318 350.133L58.5122 378.686L58.512 378.687C57.6125 383.513 54.9843 387.753 51.2054 390.475C47.4265 393.197 42.8064 394.178 38.3614 393.202L37.8168 393.082L46.5265 346.333L63.8318 350.133Z" fill="#2F2E41"/>
<path d="M115.697 153.163C134.532 153.163 149.8 136.587 149.8 116.139C149.8 95.6917 134.532 79.1155 115.697 79.1155C96.863 79.1155 81.5948 95.6917 81.5948 116.139C81.5948 136.587 96.863 153.163 115.697 153.163Z" fill="#FEB8B8"/>
<path d="M147.549 84.1983C142.451 75.2097 134.47 68.5863 125.143 65.6032L120.956 68.92V64.6132C118.716 64.241 116.449 64.0976 114.184 64.1849L110.572 67.733V64.4797C105.225 65.2012 100.072 67.1178 95.4406 70.1088C90.809 73.0998 86.7984 77.1002 83.6618 81.8578C75.8178 94.1346 74.4937 111.214 82.2088 123.59C84.3265 116.523 86.8971 109.893 89.0154 102.828C90.6799 103.074 92.367 103.083 94.0337 102.854L96.6102 96.3266L97.3301 102.578C105.317 101.823 117.163 100.164 124.734 98.6442L123.998 93.8484L128.402 97.8334C130.722 97.2538 132.099 96.7277 131.985 96.3259C137.617 106.182 144.508 112.476 150.138 122.332C152.277 108.435 154.738 96.8798 147.549 84.1983Z" fill="#2F2E41"/>
<path d="M126.793 358.416C175.288 358.416 214.602 346.477 214.602 331.75C214.602 317.023 175.288 305.085 126.793 305.085C78.2976 305.085 38.9843 317.023 38.9843 331.75C38.9843 346.477 78.2976 358.416 126.793 358.416Z" fill="#2F2E41"/>
<path d="M189.042 211.348C187.869 203.688 186.66 195.882 183.381 188.982C181.226 184.462 177.805 180.155 173.194 179.262C172.285 179.174 171.393 178.949 170.541 178.595C169.19 177.888 151.032 166.635 148.146 164.675C145.668 162.992 141.757 159.877 139.784 159.877C137.8 159.83 130.192 161.752 100.495 159.232C95.5 161.409 90.6628 163.991 86.0246 166.956C85.9289 166.887 55.2023 184.801 54.0479 184.754C51.8617 184.654 49.8297 186.174 48.5764 188.087C47.3235 190.001 46.7357 192.37 46.1203 194.66C52.8315 210.886 58.972 227.133 65.6839 243.359C65.9981 243.971 66.1651 244.658 66.1692 245.358C66.0344 246.084 65.7488 246.768 65.3343 247.357C62.0429 253.097 62.1475 260.316 62.5071 267.063C62.8669 273.809 63.3119 280.936 60.5347 286.983C59.7794 288.643 58.797 290.163 58.0786 291.823C56.3961 295.583 55.7881 307.609 56.7708 311.649L179.889 315.478C177.242 307.578 189.042 211.348 189.042 211.348Z" fill="#FFE452"/>
<path d="M35.4781 244.079C35.2324 246.008 35.2077 247.963 35.4045 249.899L37.1691 277.412C37.3347 280.005 37.4978 282.592 37.722 285.178C38.1454 290.198 38.7778 295.178 39.5628 300.151C39.5805 300.857 39.8556 301.527 40.3275 302.013C40.7995 302.499 41.4298 302.762 42.0802 302.744C49.8479 304.529 57.8734 304.457 65.8009 303.971C77.8979 303.238 108.847 301.851 110.737 299.185C112.628 296.518 111.526 292.205 109.061 290.048C106.596 287.892 65.7542 282.635 65.7542 282.635C66.1533 279.202 67.3571 275.969 68.4991 272.709C70.5503 266.927 72.4661 260.956 72.5029 254.762C72.5397 248.569 70.3905 242.057 65.7174 238.509C61.8733 235.596 56.924 235.056 52.2397 235.176C48.8315 235.282 42.9428 234.396 39.8297 235.843C37.3663 237.02 35.9383 241.46 35.4781 244.079Z" fill="#FBBEBE"/>
<path d="M189.26 306.272C191.305 305.425 193.559 305.731 195.751 306.052C202.806 307.098 209.966 308.172 216.506 311.232C219.576 312.659 222.499 314.565 224.574 317.37C226.415 319.897 227.491 322.99 228.511 326.037L230.869 333.05C231.871 335.685 232.563 338.447 232.926 341.27C233.663 349.663 228.376 357.576 221.726 361.936C215.076 366.297 207.247 367.849 199.62 369.476C191.993 371.102 184.336 372.902 176.741 374.809C173.198 375.807 169.603 376.575 165.976 377.109C157.846 378.108 149.348 376.636 141.623 379.556C138.553 380.723 135.538 382.456 132.353 383.262C130.236 383.746 128.096 384.1 125.942 384.322L111.322 386.135C108.349 386.567 105.356 386.816 102.357 386.882C95.9711 386.882 89.6892 385.24 83.4882 383.598C82.8293 383.473 82.2021 383.198 81.6473 382.792C80.6651 381.952 80.4501 380.465 80.3088 379.119C79.6824 373.159 79.1346 367.192 78.6652 361.22C78.5179 359.28 78.4074 357.18 79.3837 355.547C80.6118 353.548 83.0069 352.92 85.1929 352.533C94.4625 350.887 103.853 350.179 113.243 350.42C116.81 346.547 122.693 346.527 127.366 344.42C129.085 343.563 130.749 342.58 132.346 341.48C140.705 336.185 150.046 332.981 159.69 332.1C161.578 332.038 163.455 331.747 165.284 331.234C168.9 330.014 172.198 326.693 175.913 327.507C176.373 326.127 176.693 324.28 177.754 323.334C178.28 322.847 178.932 322.521 179.418 322C180.443 320.874 180.535 319.1 180.382 317.527C180.228 315.954 179.884 314.341 180.259 312.807C180.414 312.226 180.644 311.672 180.94 311.16C182.776 307.711 185.558 305.938 189.26 306.272Z" fill="#2F2E41"/>
<path d="M45.7652 195.154C45.1671 195.834 44.7034 196.64 44.4023 197.521C39.4389 209.666 36.5071 222.673 35.7444 235.933C35.7578 236.58 35.6205 237.22 35.3453 237.793C35.074 238.175 34.7719 238.53 34.4427 238.853C34.1556 239.223 33.9384 239.65 33.8035 240.11C33.6685 240.571 33.6184 241.056 33.6561 241.537C33.6937 242.019 33.8183 242.488 34.0229 242.917C34.2274 243.346 34.5078 243.728 34.8481 244.039C34.9039 244.09 34.9611 244.139 35.0199 244.187C36.033 242.117 38.4583 241.44 40.6141 241.26C50.936 240.374 61.0187 245.587 71.3715 245.194C70.6411 242.454 69.5905 239.82 68.9948 237.047C66.3604 224.734 72.9309 211.328 68.9028 199.468C68.0981 197.095 66.7536 194.762 64.6353 193.722C63.7581 193.338 62.8402 193.074 61.9029 192.937C59.2869 192.423 54.0793 190.23 51.5501 191.11C50.6165 191.437 50.2484 192.39 49.4745 192.966C48.299 193.781 46.7396 194.081 45.7652 195.154Z" fill="#FFE452"/>
<path d="M189.116 235.843C186.003 234.396 180.114 235.282 176.706 235.176C172.021 235.056 167.072 235.596 163.228 238.509C158.555 242.057 156.406 248.569 156.442 254.762C156.479 260.956 158.395 266.927 160.446 272.709C161.588 275.969 162.792 279.202 163.191 282.635C163.191 282.635 122.35 287.892 119.884 290.048C117.419 292.205 116.317 296.518 118.208 299.185C120.099 301.851 179.097 304.529 186.865 302.744C187.516 302.762 188.146 302.499 188.618 302.013C189.09 301.527 189.365 300.857 189.383 300.151C190.168 295.178 190.8 290.198 191.223 285.178C191.448 282.592 191.611 280.005 191.776 277.412L193.541 249.899C193.738 247.963 193.713 246.008 193.467 244.079C193.007 241.46 191.579 237.02 189.116 235.843Z" fill="#FBBEBE"/>
<path d="M179.471 192.966C178.697 192.39 178.329 191.437 177.395 191.11C174.866 190.23 169.659 192.423 167.043 192.937C166.105 193.074 165.187 193.338 164.31 193.722C162.192 194.762 160.847 197.095 160.043 199.468C156.015 211.328 162.585 224.734 159.951 237.047C159.355 239.82 158.304 242.454 157.574 245.194C167.927 245.587 178.009 240.374 188.331 241.26C190.487 241.44 192.912 242.117 193.926 244.187C193.984 244.139 194.042 244.09 194.097 244.039C194.438 243.728 194.718 243.346 194.923 242.917C195.127 242.488 195.252 242.019 195.289 241.537C195.327 241.056 195.277 240.571 195.142 240.11C195.007 239.65 194.79 239.223 194.503 238.853C194.174 238.53 193.872 238.175 193.6 237.793C193.325 237.22 193.188 236.58 193.201 235.933C192.438 222.673 189.507 209.666 184.543 197.521C184.242 196.64 183.778 195.834 183.18 195.154C182.206 194.081 180.646 193.781 179.471 192.966Z" fill="#FFE452"/>
<path d="M196.737 373.571L194.942 388.234L141.992 387.695L144.642 366.053L196.737 373.571Z" fill="#FFB6B6"/>
<path d="M210.287 371.72L204.499 419L203.948 418.921C199.452 418.272 195.378 415.711 192.622 411.801C189.866 407.891 188.652 402.953 189.25 398.073L189.25 398.071L192.785 369.194L210.287 371.72Z" fill="#2F2E41"/>
<path d="M72.1676 313.692C72.1676 314.359 71.2038 313.692 71.1157 312.978C70.4405 307.585 66.4978 303.138 61.9049 300.978C57.3119 298.818 52.08 298.705 47.1064 299.218C39.5845 299.991 31.1409 303.118 28.3902 310.751C27.7393 312.536 21.6421 328.424 22.2371 331.997C23.84 341.53 29.8451 349.684 37.1217 355.33C44.3984 360.977 52.9005 364.35 61.3815 367.393C83.8046 375.422 106.81 381.387 130.155 385.226C133.937 385.846 137.757 386.419 141.38 387.739C144.622 388.919 147.655 390.685 150.824 392.072C158.193 395.284 166.12 396.432 173.973 397.559C175.312 397.746 176.847 397.879 177.836 396.892C179.113 395.608 178.691 393.366 178.327 391.519C176.994 384.498 178.113 377.189 181.465 371.013C182.78 368.614 184.489 366.153 184.241 363.376C183.946 360.136 180.974 357.843 178.014 357.322C175.054 356.802 172.046 357.569 169.073 357.989C168.054 358.243 166.987 358.128 166.033 357.662C165.592 357.338 165.191 356.953 164.842 356.516C162.795 354.372 160.174 352.986 157.357 352.559C154.54 352.131 151.67 352.683 149.159 354.136C148.06 354.803 146.398 353.316 145.254 352.756L132.341 346.41C117.505 339.123 102.596 331.803 86.901 327.19C85.6487 326.923 84.4585 326.385 83.4008 325.61C82.6211 324.943 82.0622 324.039 81.3436 323.296C79.7776 321.69 77.5962 321.049 75.7192 319.91C73.8421 318.77 71.7377 315.978 72.1676 313.692Z" fill="#2F2E41"/>
<path d="M105.597 304.058C110.681 304.058 114.801 299.584 114.801 294.065C114.801 288.546 110.681 284.073 105.597 284.073C100.514 284.073 96.3929 288.546 96.3929 294.065C96.3929 299.584 100.514 304.058 105.597 304.058Z" fill="#FBBEBE"/>
<path d="M125.978 304.058C131.061 304.058 135.182 299.584 135.182 294.065C135.182 288.546 131.061 284.073 125.978 284.073C120.895 284.073 116.774 288.546 116.774 294.065C116.774 299.584 120.895 304.058 125.978 304.058Z" fill="#FBBEBE"/>
<path d="M182.794 316.583H56.341C54.8647 316.581 53.4492 315.943 52.4053 314.81C51.3613 313.677 50.774 312.14 50.7723 310.537V227.25C50.774 225.647 51.3613 224.111 52.4053 222.977C53.4492 221.844 54.8647 221.206 56.341 221.205H182.794C184.27 221.206 185.686 221.844 186.729 222.977C187.773 224.111 188.361 225.647 188.362 227.25V310.537C188.361 312.14 187.773 313.677 186.729 314.81C185.686 315.943 184.27 316.581 182.794 316.583Z" fill="#3F3D56"/>
<path d="M119.261 272.894C121.295 272.894 122.945 271.103 122.945 268.894C122.945 266.685 121.295 264.894 119.261 264.894C117.226 264.894 115.576 266.685 115.576 268.894C115.576 271.103 117.226 272.894 119.261 272.894Z" fill="white"/>
<path d="M570.684 150.214H406.393C405.521 150.213 404.685 149.837 404.069 149.168C403.453 148.499 403.106 147.591 403.105 146.645V113.027H404.42V146.645C404.421 147.213 404.629 147.757 404.998 148.159C405.368 148.56 405.87 148.786 406.393 148.787H570.684C571.207 148.786 571.708 148.56 572.078 148.159C572.448 147.757 572.656 147.213 572.656 146.645V112.792H573.971V146.645C573.97 147.591 573.624 148.499 573.007 149.168C572.391 149.837 571.555 150.213 570.684 150.214V150.214Z" fill="#3F3D56"/>
<path d="M630.24 112.313H244.174V113.741H630.24V112.313Z" fill="#3F3D56"/>
<path d="M244.202 125.194C250.448 125.194 255.511 119.696 255.511 112.915C255.511 106.134 250.448 100.637 244.202 100.637C237.956 100.637 232.893 106.134 232.893 112.915C232.893 119.696 237.956 125.194 244.202 125.194Z" fill="#FFE452"/>
<path d="M359.127 125.194C365.373 125.194 370.437 119.696 370.437 112.915C370.437 106.134 365.373 100.637 359.127 100.637C352.881 100.637 347.818 106.134 347.818 112.915C347.818 119.696 352.881 125.194 359.127 125.194Z" fill="#FFE452"/>
<path d="M437.121 161.282C443.367 161.282 448.431 155.785 448.431 149.004C448.431 142.223 443.367 136.726 437.121 136.726C430.875 136.726 425.812 142.223 425.812 149.004C425.812 155.785 430.875 161.282 437.121 161.282Z" fill="#3F3D56"/>
<path d="M496.415 161.282C502.661 161.282 507.724 155.785 507.724 149.004C507.724 142.223 502.661 136.726 496.415 136.726C490.169 136.726 485.105 142.223 485.105 149.004C485.105 155.785 490.169 161.282 496.415 161.282Z" fill="#CCCCCC"/>
<path d="M467.682 125.194C473.928 125.194 478.992 119.696 478.992 112.915C478.992 106.134 473.928 100.637 467.682 100.637C461.436 100.637 456.373 106.134 456.373 112.915C456.373 119.696 461.436 125.194 467.682 125.194Z" fill="#FFE452"/>
<path d="M628.691 125.194C634.937 125.194 640 119.696 640 112.915C640 106.134 634.937 100.637 628.691 100.637C622.444 100.637 617.381 106.134 617.381 112.915C617.381 119.696 622.444 125.194 628.691 125.194Z" fill="#FFE452"/>
<path d="M573.314 125.194C579.56 125.194 584.623 119.696 584.623 112.915C584.623 106.134 579.56 100.637 573.314 100.637C567.068 100.637 562.004 106.134 562.004 112.915C562.004 119.696 567.068 125.194 573.314 125.194Z" fill="#FFE452"/>
<path d="M447.358 0H426.381V15.6957H447.358V0Z" fill="#3F3D56"/>
<path d="M254.773 0H233.796V15.6957H254.773V0Z" fill="#FFE452"/>
<path d="M325.825 0H304.849V15.6957H325.825V0Z" fill="#CCCCCC"/>
<path d="M279.272 113.741C279.098 113.741 278.93 113.665 278.807 113.531C278.684 113.398 278.615 113.216 278.615 113.027V77.7935C278.616 76.8473 278.962 75.9402 279.579 75.2711C280.195 74.6021 281.03 74.2257 281.902 74.2246H313.903C314.077 74.2246 314.245 74.2999 314.368 74.4337C314.491 74.5676 314.56 74.7491 314.56 74.9384C314.56 75.1277 314.491 75.3093 314.368 75.4431C314.245 75.577 314.077 75.6522 313.903 75.6522H281.902C281.379 75.6528 280.878 75.8786 280.508 76.28C280.138 76.6815 279.93 77.2258 279.93 77.7935V113.027C279.93 113.216 279.86 113.398 279.737 113.531C279.614 113.665 279.446 113.741 279.272 113.741V113.741Z" fill="#3F3D56"/>
<path d="M315.407 86.9498C321.653 86.9498 326.716 81.4527 326.716 74.6716C326.716 67.8905 321.653 62.3933 315.407 62.3933C309.161 62.3933 304.098 67.8905 304.098 74.6716C304.098 81.4527 309.161 86.9498 315.407 86.9498Z" fill="#E6E6E6"/>
<path d="M532.389 113.027H531.074V77.7935C531.075 76.8473 531.422 75.9402 532.038 75.2711C532.655 74.6021 533.49 74.2257 534.362 74.2246H566.363V75.6522H534.362C533.839 75.6528 533.337 75.8786 532.968 76.28C532.598 76.6815 532.39 77.2258 532.389 77.7935V113.027Z" fill="#3F3D56"/>
<path d="M567.867 86.9498C574.113 86.9498 579.176 81.4527 579.176 74.6716C579.176 67.8905 574.113 62.3933 567.867 62.3933C561.621 62.3933 556.557 67.8905 556.557 74.6716C556.557 81.4527 561.621 86.9498 567.867 86.9498Z" fill="#E6E6E6"/>
</svg>
